<svg xmlns="http://www.w3.org/2000/svg"  style="display: none;">
   <symbol id="loader" viewBox="0 0 100 100">
    <g transform="translate(50 50)">
      <g transform="scale(0.510103 0.510103)">
        <animateTransform attributeName="transform" type="scale" calcMode="spline" values="0.8;0.5;0.8" keyTimes="0;0.5;1" dur="2s" keySplines="0.5 0 0.5 1;0.5 0 0.5 1" begin="0s" repeatCount="indefinite"></animateTransform>
        <rect x="-45" y="-45" width="90" height="90" ng-attr-fill="{{config.fill}}" ng-attr-stroke="{{config.stroke}}" ng-attr-stroke-width="{{config.width}}" fill="#1d3f72" stroke="#5699d2" stroke-width="5" transform="rotate(279.093)" rx="42.5">
          <animate attributeName="rx" calcMode="linear" values="0;50;0" keyTimes="0;0.5;1" dur="2" begin="0s" repeatCount="indefinite"></animate>
          <animate attributeName="stroke-width" calcMode="linear" values="5;15;5" keyTimes="0;0.5;1" dur="2" begin="0s" repeatCount="indefinite"></animate>
          <animateTransform attributeName="transform" type="rotate" calcMode="spline" values="0 0 0;270 0 0;540 0 0" keyTimes="0;0.5;1" dur="2s" keySplines="0.5 0 0.5 1;0.5 0 0.5 1" begin="0s" repeatCount="indefinite"></animateTransform>
        </rect>
      </g>
    </g>
   </symbol>
   <symbol id="projects-white" viewBox="0 0 100 100">
     <g id="Symbols" stroke="none" stroke-width="1" fill="none" fill-rule="evenodd">
        <g id="gov/leftpanel" transform="translate(-12.000000, -10.000000)" stroke="#B2C2D8" stroke-width="1.24528302">
            <g id="leftpanel">
                <g id="projects">
                    <g id="gov/projects" transform="translate(12.000000, 10.000000)">
                        <path d="M16.5,16.5 L0.933962264,8.71698113" id="Line-15" stroke-linecap="round"></path>
                        <path d="M16.5,16.5 L16.5,31.754717" id="Line-13" stroke-linecap="round"></path>
                        <path d="M24.75,20.7028302 L32.3773585,24.2830189" id="Line-12" stroke-linecap="round"></path>
                        <path d="M0.622641509,8.78687911 L0.622641509,24.5168191 L16.5724346,32.3064716 L32.3773585,24.5183452 L32.3773585,8.78761322 L16.4656335,0.6987813 L0.622641509,8.78687911 Z" id="Rectangle"></path>
                        <path d="M8.71698113,12.7576872 L8.71698113,20.3932876 L16.5363001,24.2121319 L24.2830189,20.3948137 L24.2830189,12.7584213 L16.4827864,8.79312092 L8.71698113,12.7576872 Z" id="Rectangle-Copy-11"></path>
                        <path d="M8.56132075,20.3915094 L0.933962264,24.4386792" id="Line-14" stroke-linecap="round"></path>
                        <path d="M16.5,0.933962264 L16.5,8.56132075" id="Line-10" stroke-linecap="round"></path>
                        <path d="M16.5,16.5 L32.0660377,9.02830189" id="Line-11" stroke-linecap="round"></path>
                    </g>
                </g>
            </g>
        </g>
    </g>
   </symbol>
   <symbol id="price-ticket" viewBox="0 0 100 100">
     <g id="Design" stroke="none" stroke-width="1" fill="none" fill-rule="evenodd">
        <g id="price-ticket" transform="translate(1.000000, 1.000000)" fill-rule="nonzero" stroke="#B2C2D8">
            <path d="M11.804952,23.9489216 L24.49435,11.2595678 C24.9882085,10.7656453 25.2160117,10.0646238 25.1062508,9.37444686 L24.0731178,2.87261346 C23.9778814,2.27293038 23.6415794,1.75647237 23.1656813,1.42472606 L25.7790178,1.84000957 C26.6761133,1.98241423 27.379543,2.6858414 27.5220113,3.58293385 L28.5155606,9.83565495 C28.6211161,10.4993883 28.402041,11.1735508 27.9271044,11.648549 L15.1995728,24.3760363 C14.3799689,25.1956374 13.0516758,25.1956374 12.2321983,24.3761627 L11.804952,23.9489216 Z M25.1062508,9.37444686 L24.0731178,2.87261346 C23.9249735,1.93978029 23.1935188,1.20832814 22.2606823,1.06025 L15.758892,0.0270549414 C15.068647,-0.0826398773 14.367623,0.145162544 13.8737646,0.639019265 L0.639094492,13.8736433 C-0.213031497,14.725832 -0.213031497,16.107106 0.639094492,16.9592948 L8.17414918,24.4942575 C9.02627517,25.3463805 10.4074883,25.3463805 11.2597457,24.494126 L24.49435,11.2595678 C24.9882085,10.7656453 25.2160117,10.0646238 25.1062508,9.37444686 Z M10.693261,22.8055882 C10.3602976,23.1385505 9.82023444,23.1385505 9.48720533,22.8055882 L2.32776962,15.6461775 C1.99480624,15.3131495 1.99480624,14.7730882 2.32776962,14.4400603 C2.66060155,14.1072295 3.20079619,14.107098 3.5338253,14.4400603 L10.693261,21.5995368 C11.0262244,21.932499 11.0260929,22.472626 10.693261,22.8055882 Z M20.3246179,7.1325056 C19.682878,7.77424329 18.6424496,7.77417757 18.0009068,7.1325056 C17.3591669,6.49076791 17.3590355,5.45054029 18.0009068,4.8088026 C18.6425153,4.1670649 19.6828123,4.1670649 20.3246179,4.8088026 C20.9662264,5.45047457 20.9662264,6.49083363 20.3246179,7.1325056 Z" id="Shape"></path>
        </g>
    </g>
   </symbol>
   <symbol id="lighthouse" viewBox="0 0 100 100">
     <path d="M78 156C121.078 156 156 121.078 156 78C156 34.9218 121.078 0 78 0C34.9218 0 0 34.9218 0 78C0 121.078 34.9218 156 78 156Z" fill="white"/>
     <path fill-rule="evenodd" clip-rule="evenodd" d="M47.5491 55.6192H108.505C109.905 55.6192 111.045 54.4842 111.045 53.0845C111.045 51.6913 109.905 50.5521 108.505 50.5521H108.374C107.226 36.6419 96.6942 25.4053 83.1069 23.1289V19.5049H78.6619V10.6337C78.6619 10.2886 78.3771 10 78.0269 10C77.6768 10 77.3919 10.2886 77.3919 10.6337V19.5027H72.9491V23.1267C59.3619 25.4031 48.8322 36.6398 47.6774 50.5499H47.5491C46.1487 50.5499 45.0113 51.6892 45.0113 53.0824C45.0113 54.4842 46.1487 55.6192 47.5491 55.6192Z" fill="#E40064"/>
     <path fill-rule="evenodd" clip-rule="evenodd" d="M121.205 119.224H118.03V90.0755H121.205C122.962 90.0755 124.38 88.665 124.38 86.9072C124.38 85.1647 122.962 83.7389 121.205 83.7389H34.8513C33.0985 83.7389 31.6763 85.1647 31.6763 86.9072C31.6763 88.665 33.0985 90.0755 34.8513 90.0755H38.0263V119.224H34.8513C33.0985 119.224 31.6763 120.647 31.6763 122.39C31.6763 124.15 33.0985 125.558 34.8513 125.558H121.205C122.962 125.558 124.38 124.15 124.38 122.39C124.38 120.652 122.962 119.224 121.205 119.224ZM109.14 119.224H103.807V90.0755H109.14V119.224ZM75.3608 90.0755H80.6931V119.224H75.3608V90.0755ZM66.473 119.224H61.1386V90.0755H66.473V119.224ZM89.5852 90.0755H94.9175V119.224H89.5852V90.0755ZM46.9141 90.0755H52.2464V119.224H46.9141V90.0755Z" fill="#15287F"/>
     <path fill-rule="evenodd" clip-rule="evenodd" d="M43.7413 66.3914H46.9402C46.9402 66.4391 46.9141 66.4825 46.9141 66.5172V80.193H53.2641V66.5172C53.2641 66.4717 53.2402 66.4261 53.2402 66.3914H56.2564C56.2564 66.4391 56.2325 66.4825 56.2325 66.5172V80.193H62.5803V66.5172C62.5803 66.4717 62.5564 66.4261 62.5564 66.3914H65.5727C65.5727 66.4391 65.5488 66.4825 65.5488 66.5172V80.193H71.8987V66.5172C71.8987 66.4717 71.8727 66.4261 71.8727 66.3914H74.8889C74.8889 66.4391 74.8628 66.4825 74.8628 66.5172V80.193H81.2128V66.5172C81.2128 66.4717 81.1867 66.4261 81.1867 66.3914H84.2029C84.2029 66.4391 84.1769 66.4825 84.1769 66.5172V80.193H90.5268V66.5172C90.5268 66.4717 90.5029 66.4261 90.5029 66.3914H93.5192C93.5192 66.4391 93.4931 66.4825 93.4931 66.5172V80.193H99.8431V66.5172C99.8431 66.4717 99.817 66.4261 99.817 66.3914H102.833C102.833 66.4391 102.809 66.4825 102.809 66.5172V80.193H109.159V66.5172C109.159 66.4717 109.133 66.4261 109.133 66.3914H112.332C114.089 66.3914 115.507 64.9787 115.507 63.2231C115.507 61.4718 114.089 60.0548 112.332 60.0548H43.7609C42.0103 60.0548 40.5859 61.4718 40.5859 63.2231C40.5859 64.97 41.9864 66.3914 43.7413 66.3914Z" fill="#FF962B"/>
   </symbol>
   <symbol id="group" viewBox="0 0 100 100">
     <g id="Design" stroke="none" stroke-width="1" fill="none" fill-rule="evenodd">
        <g id="table-filter---A" transform="translate(-17.000000, -285.000000)" fill-rule="nonzero">
            <g id="Group" transform="translate(17.000000, 286.000000)">
                <g id="dollar" transform="translate(0.000000, 12.000000)" fill="#B2C2D8">
                    <path d="M24.0466484,1.2027637 C23.7596836,1.2027637 23.494707,1.27070419 23.2596914,1.37310797 C22.9023945,0.929473302 22.3478125,0.642328569 21.7226445,0.641736924 C21.3995742,0.641736924 21.1024023,0.724961566 20.8470742,0.849650616 L20.8203633,0.864047296 L20.022082,1.32375497 C19.6642266,0.908272712 19.1282305,0.642032747 18.5268789,0.641736924 C18.2038086,0.641736924 17.9066367,0.724961566 17.6513086,0.849650616 L17.6193672,0.867153429 L14.5629961,2.68463562 C13.8727773,2.48663197 13.1064375,2.26944919 12.3659453,2.0655291 C11.5847773,1.85031846 10.8335195,1.65034266 10.2313555,1.502826 C9.92981641,1.42891976 9.66605859,1.36827621 9.45049219,1.32513547 C9.34242969,1.30339254 9.24655469,1.28623486 9.16144531,1.27356381 C9.07516797,1.26113927 9.00310937,1.25241252 8.92180859,1.2521167 C8.85904297,1.25241252 8.80470703,1.25773732 8.74285547,1.26508357 C8.51774219,1.29387693 8.19756641,1.36043692 7.81990625,1.44642257 C7.04833594,1.62243677 6.06358594,1.87852017 5.51946484,2.02233906 L5.51946484,1.12821651 C5.51946484,0.507729475 4.99657031,0 4.3574375,0 L1.16202734,0 C0.522894531,9.86073947e-05 0,0.507778779 0,1.12831511 L0,9.87178349 C0,10.4922705 0.522894531,11 1.16202734,11 L4.35748828,11 C4.99657031,11 5.51951562,10.4923198 5.51951562,9.87178349 L5.51951562,9.19292089 C6.20917578,9.33871192 7.73982422,9.65967899 9.35355078,9.98148422 C10.4449922,10.1989628 11.5729453,10.416688 12.5045781,10.58082 C12.9705469,10.6629106 13.3874102,10.7314428 13.7287617,10.7799576 C14.0730078,10.8282259 14.3295039,10.858104 14.5250117,10.8592379 C14.6772031,10.8586956 14.8213203,10.8307404 14.9770156,10.7889802 C15.2666719,10.7096998 15.5963438,10.5751993 15.9736992,10.397213 C17.2870039,9.77559198 19.1732227,8.61098935 20.9525469,7.45856472 C22.7286719,6.30752061 24.3900313,5.17092247 25.2040039,4.62656035 C25.713543,4.28557598 26,3.70936367 26,3.09957554 C25.9991367,2.0522664 25.1255469,1.20330604 24.0466484,1.2027637 Z M4.64795703,9.87168489 C4.64795703,10.0245263 4.51491016,10.153702 4.35748828,10.153702 L1.16202734,10.153702 C1.00460547,10.153702 0.871558594,10.0245263 0.871558594,9.87168489 L0.871558594,1.12831511 C0.871558594,0.975473652 1.00460547,0.846297965 1.16202734,0.846297965 L4.35748828,0.846297965 C4.51491016,0.846297965 4.64795703,0.975473652 4.64795703,1.12831511 L4.64795703,9.87168489 Z M24.7098516,3.92955398 C23.7088008,4.59914749 21.4687383,6.13485906 19.3004805,7.5022478 C18.2172148,8.18535053 17.1519766,8.82590416 16.2784375,9.29014778 C15.842125,9.52226958 15.4528359,9.70982085 15.1416992,9.83534806 C14.9863086,9.89791445 14.8503164,9.94504879 14.7425078,9.97408867 C14.6353086,10.0036709 14.5545156,10.0135809 14.5252148,10.0129893 C14.4302031,10.0138274 14.1786836,9.98957003 13.8553594,9.94273151 C12.7108008,9.77998001 10.5683906,9.36449775 8.72366016,8.99082503 C7.80045703,8.80381611 6.950125,8.62725957 6.33054297,8.49749223 C5.97060547,8.42220549 5.69288281,8.36323827 5.51971875,8.32685214 L5.51971875,2.89979696 C5.60487891,2.87692004 5.71639453,2.84733782 5.85030469,2.81208568 C6.30962109,2.69109441 7.01055469,2.50970611 7.63922656,2.35942844 C7.95325781,2.28409239 8.24987109,2.21703936 8.48544531,2.16931338 C8.60280078,2.1456476 8.70537891,2.12676429 8.78408984,2.11458627 C8.86132812,2.10216174 8.92145313,2.09767511 8.9220625,2.09851327 C8.92353516,2.09821745 8.96913672,2.10102776 9.03129297,2.11039546 C9.27184375,2.14535178 9.76477734,2.25732048 10.3652148,2.40991542 C12.1747539,2.86883424 15.028,3.69831964 16.1807344,4.03817003 C16.5795703,4.15492118 16.9406758,4.33093538 17.1777227,4.54446969 C17.2968555,4.65111359 17.386332,4.76505444 17.446457,4.88826438 C17.506582,5.01206596 17.5405547,5.14607341 17.5411641,5.30990959 C17.5408594,5.64187139 17.40375,5.93858104 17.1798047,6.15665129 C16.9572812,6.37186193 16.6551328,6.50355211 16.3178945,6.50665824 L15.1933437,6.39976782 L11.3555508,5.92137405 C11.1167266,5.89179183 10.8982656,6.05533219 10.8674922,6.28715818 C10.836668,6.51903347 11.0057695,6.73079285 11.2442383,6.76072019 L15.0944727,7.24044517 L16.2861055,7.35379437 L16.3075859,7.35379437 C17.4698672,7.35349855 18.4119609,6.43881635 18.4125703,5.31005751 C18.4131289,5.02606821 18.3483828,4.75894078 18.2336172,4.52514264 C18.0608086,4.17286773 17.7827812,3.90011967 17.4684453,3.6925018 C17.1529414,3.48434159 16.7968125,3.33603607 16.4342852,3.22884983 C16.232125,3.16934027 15.9773555,3.09430004 15.6862773,3.00939908 L18.0512109,1.6028139 C18.2045703,1.5294993 18.3614844,1.48803489 18.5276406,1.48773907 C18.8094258,1.48744324 19.0638906,1.5934955 19.25625,1.76502306 L18.087875,2.43772271 C17.881043,2.55679114 17.812793,2.81652301 17.9356836,3.01733697 C18.0585742,3.21815093 18.3258359,3.28471092 18.5329219,3.16544528 L21.2450469,1.60375067 C21.3992695,1.5295486 21.5570469,1.48783767 21.7238125,1.48783767 C22.0244883,1.48754185 22.2949492,1.60912477 22.4910156,1.80205014 L19.3330312,3.6204198 C19.1258945,3.73948823 19.0579492,3.99922011 19.1808398,4.20028058 C19.3037305,4.40109454 19.5709922,4.46735871 19.7780781,4.34804376 L23.1929141,2.3816151 C23.2260234,2.376241 23.2594375,2.3683524 23.2919883,2.35479389 C23.3619648,2.32600053 23.4189414,2.28034531 23.4627656,2.22616054 L23.5693555,2.16467883 C23.7235781,2.09047677 23.8813555,2.04876584 24.0480703,2.04876584 C24.3475781,2.04906166 24.6153984,2.16586212 24.8126836,2.35651952 C25.0090547,2.54806438 25.1293047,2.8083386 25.1296602,3.09942763 C25.1281875,3.45401982 24.9608633,3.76369634 24.7098516,3.92955398 Z" id="Shape"></path>
                </g>
                <path d="M19.6763234,4.35983349 L19.1958377,1.33598457 C19.1269392,0.902145931 18.786757,0.561964838 18.3529168,0.493097195 L15.3290879,0.0125826133 C15.0080713,-0.0384338522 14.6820416,0.0675116657 14.4523597,0.297192745 L8.29722773,6.45230332 C7.90092409,6.84863615 7.90092409,7.49103401 8.29722773,7.88736684 L11.8016034,11.3916998 C12.1979071,11.788002 12.8402766,11.788002 13.2366414,11.3916386 L19.3917428,5.23655863 C19.6214247,5.00684699 19.7273706,4.68081846 19.6763234,4.35983349 Z M19.6763234,4.35983349 L19.1958377,1.33598457 C19.1269392,0.902145931 18.786757,0.561964838 18.3529168,0.493097195 L15.3290879,0.0125826133 C15.0080713,-0.0384338522 14.6820416,0.0675116657 14.4523597,0.297192745 L8.29722773,6.45230332 C7.90092409,6.84863615 7.90092409,7.49103401 8.29722773,7.88736684 L11.8016034,11.3916998 C12.1979071,11.788002 12.8402766,11.788002 13.2366414,11.3916386 L19.3917428,5.23655863 C19.6214247,5.00684699 19.7273706,4.68081846 19.6763234,4.35983349 Z M17.452499,3.31715964 C17.154041,3.61561666 16.6701623,3.6155861 16.371796,3.31715964 C16.0733379,3.01870262 16.0732768,2.53491736 16.371796,2.23646034 C16.6701929,1.93800332 17.1540104,1.93800332 17.452499,2.23646034 C17.750896,2.5348868 17.750896,3.01873319 17.452499,3.31715964 Z" id="Shape" stroke="#B2C2D8"></path>
            </g>
        </g>
    </g>
   </symbol>
   <symbol id="tag-manager" viewBox="0 0 100 100">
    <g id="Page-1" stroke="none" stroke-width="1" fill="none" fill-rule="evenodd">
        <g id="latm02" fill="#B2C2D8" fill-rule="nonzero">
            <path d="M290,512 L222,512 C210.972656,512 202,503.027344 202,492 L202,462.144531 C183.183594,457.226562 165.226562,449.78125 148.4375,439.933594 L127.308594,461.0625 C119.507812,468.859375 106.820312,468.859375 99.023438,461.0625 L50.9375,412.976562 C43.140625,405.179688 43.140625,392.492188 50.9375,384.695312 L72.066406,363.5625 C62.21875,346.773438 54.773438,328.816406 49.855469,310 L20,310 C8.972656,310 0,301.027344 0,290 L0,222 C0,210.972656 8.972656,202 20,202 L49.789062,202 C54.691406,183.152344 62.128906,165.164062 71.976562,148.34375 L50.9375,127.304688 C43.140625,119.507812 43.140625,106.820312 50.9375,99.023438 L99.023438,50.9375 C106.820312,43.140625 119.507812,43.140625 127.308594,50.9375 L148.273438,71.90625 C165.109375,62.011719 183.121094,54.535156 202,49.601562 L202,20 C202,8.972656 210.972656,0 222,0 L290,0 C301.027344,0 310,8.972656 310,20 L310,49.535156 C328.90625,54.453125 346.953125,61.921875 363.816406,71.8125 L384.695312,50.9375 C392.492188,43.140625 405.179688,43.140625 412.976562,50.9375 L461.0625,99.023438 C468.859375,106.820312 468.859375,119.507812 461.0625,127.308594 L440.1875,148.183594 C450.078125,165.046875 457.546875,183.09375 462.464844,202 L492,202 C503.027344,202 512,210.972656 512,222 L512,290 C512,301.027344 503.027344,310 492,310 L462.398438,310 C457.464844,328.878906 449.984375,346.890625 440.09375,363.726562 L461.058594,384.695312 C468.855469,392.492188 468.855469,405.179688 461.058594,412.976562 L412.976562,461.0625 C405.179688,468.859375 392.492188,468.859375 384.691406,461.0625 L363.65625,440.023438 C346.832031,449.871094 328.84375,457.308594 310,462.210938 L310,492 C310,503.027344 301.027344,512 290,512 Z M146.9375,417.289062 C148.796875,417.289062 150.660156,417.804688 152.316406,418.859375 C171.34375,431.007812 192.152344,439.636719 214.160156,444.507812 C218.742188,445.523438 222,449.582031 222,454.273438 L222,492 L290,492 L290,454.328125 C290,449.632812 293.265625,445.570312 297.851562,444.5625 C319.890625,439.710938 340.730469,431.09375 359.789062,418.953125 C363.742188,416.433594 368.917969,417 372.234375,420.316406 L398.835938,446.917969 L446.917969,398.835938 L420.375,372.292969 C417.054688,368.972656 416.492188,363.789062 419.023438,359.832031 C431.214844,340.769531 439.878906,319.910156 444.765625,297.839844 C445.777344,293.257812 449.839844,290 454.527344,290 L492,290 L492,222 L454.582031,222 C449.886719,222 445.824219,218.734375 444.816406,214.148438 C439.953125,192.046875 431.304688,171.15625 419.113281,152.0625 C416.589844,148.105469 417.15625,142.929688 420.472656,139.609375 L446.917969,113.164062 L398.835938,65.082031 L372.390625,91.527344 C369.074219,94.84375 363.894531,95.410156 359.9375,92.886719 C340.84375,80.695312 319.953125,72.050781 297.851562,67.183594 C293.265625,66.175781 290,62.113281 290,57.417969 L290,20 L222,20 L222,57.472656 C222,62.164062 218.742188,66.222656 214.164062,67.238281 C192.089844,72.125 171.230469,80.785156 152.167969,92.976562 C148.214844,95.507812 143.027344,94.945312 139.710938,91.625 L113.164062,65.082031 L65.082031,113.164062 L91.683594,139.769531 C95,143.082031 95.566406,148.257812 93.046875,152.210938 C80.90625,171.269531 72.289062,192.109375 67.4375,214.148438 C66.429688,218.734375 62.367188,222 57.671875,222 L20,222 L20,290 L57.726562,290 C62.417969,290 66.476562,293.261719 67.492188,297.839844 C72.363281,319.851562 80.996094,340.65625 93.140625,359.683594 C95.664062,363.640625 95.101562,368.820312 91.78125,372.136719 L65.082031,398.835938 L113.164062,446.921875 L139.863281,420.21875 C141.796875,418.289062 144.355469,417.289062 146.9375,417.289062 Z" id="Shape"></path>
            <path d="M256,401.933594 C218.613281,401.933594 181.226562,387.699219 152.761719,359.238281 C95.835938,302.3125 95.835938,209.6875 152.761719,152.761719 C175.722656,129.804688 204.835938,115.445312 236.953125,111.242188 C268.050781,107.171875 300.15625,113.335938 327.367188,128.59375 C332.183594,131.292969 333.898438,137.386719 331.199219,142.203125 C328.496094,147.023438 322.402344,148.738281 317.585938,146.035156 C268.617188,118.574219 206.652344,127.15625 166.90625,166.90625 C117.777344,216.03125 117.777344,295.96875 166.90625,345.097656 C191.46875,369.65625 223.738281,381.9375 256,381.941406 C288.269531,381.945312 320.53125,369.664062 345.097656,345.097656 C383.507812,306.6875 393.019531,248.253906 368.761719,199.695312 C366.292969,194.753906 368.296875,188.746094 373.238281,186.277344 C378.175781,183.808594 384.183594,185.816406 386.652344,190.757812 C414.761719,247.023438 403.746094,314.734375 359.238281,359.238281 C330.773438,387.699219 293.386719,401.933594 256,401.933594 L256,401.933594 Z" id="Path"></path>
            <path d="M354.351562,172.011719 C351.710938,172.011719 349.140625,170.949219 347.269531,169.078125 C345.410156,167.21875 344.351562,164.648438 344.351562,162.011719 C344.351562,159.378906 345.410156,156.800781 347.269531,154.941406 C349.128906,153.078125 351.710938,152.011719 354.351562,152.011719 C356.980469,152.011719 359.558594,153.078125 361.421875,154.941406 C363.28125,156.800781 364.351562,159.378906 364.351562,162.011719 C364.351562,164.648438 363.28125,167.21875 361.421875,169.078125 C359.550781,170.949219 356.980469,172.011719 354.351562,172.011719 Z" id="Path"></path>
            <path d="M241.886719,329.667969 C239.234375,329.667969 236.691406,328.613281 234.816406,326.738281 L171.578125,263.496094 C167.671875,259.59375 167.671875,253.261719 171.578125,249.355469 L207.445312,213.484375 C209.320312,211.609375 211.863281,210.558594 214.515625,210.558594 C217.167969,210.558594 219.714844,211.609375 221.589844,213.484375 L241.886719,233.785156 L290.414062,185.261719 C294.316406,181.355469 300.648438,181.355469 304.554688,185.261719 L340.425781,221.132812 C344.328125,225.035156 344.328125,231.367188 340.425781,235.273438 L248.960938,326.738281 C247.082031,328.613281 244.539062,329.667969 241.886719,329.667969 Z M192.789062,256.425781 L241.886719,305.523438 L319.210938,228.203125 L297.484375,206.476562 L248.960938,255 C247.085938,256.875 244.539062,257.929688 241.886719,257.929688 C239.234375,257.929688 236.691406,256.875 234.816406,255 L214.515625,234.699219 L192.789062,256.425781 Z" id="Shape"></path>
        </g>
    </g>
   </symbol>
   <symbol id="collapse" viewBox="0 0 100 100">
    <g id="Governance2.0" stroke="none" stroke-width="1" fill="none" fill-rule="evenodd">
        <g id="Event-state-read-Copy" transform="translate(-354.000000, -162.000000)">
            <g id="Group-17" transform="translate(348.000000, 156.000000)">
                <g id="Group-16" transform="translate(7.000000, 7.000000)">
                    <line x1="0.300505051" y1="0.388888889" x2="12.9217172" y2="0.388888889" id="Line-8" stroke="#147CC1" stroke-linecap="square"></line>
                    <line x1="6.29166667" y1="6.88888889" x2="12.7083333" y2="6.88888889" id="Line-8-Copy-2" stroke="#147CC1" stroke-linecap="square"></line>
                    <line x1="6.29166667" y1="3.63888889" x2="12.7083333" y2="3.63888889" id="Line-8-Copy-3" stroke="#147CC1" stroke-linecap="square"></line>
                    <line x1="6.29166667" y1="10.1388889" x2="12.7083333" y2="10.1388889" id="Line-8-Copy-4" stroke="#147CC1" stroke-linecap="square"></line>
                    <line x1="0.300505051" y1="13.3888889" x2="12.9217172" y2="13.3888889" id="Line-8-Copy" stroke="#147CC1" stroke-linecap="square"></line>
                    <polygon id="Triangle" fill="#147CC1" transform="translate(1.944444, 6.888889) rotate(-90.000000) translate(-1.944444, -6.888889) " points="1.94444444 5.33333333 5.94444444 8.44444444 -2.05555556 8.44444444"></polygon>
                </g>
            </g>
        </g>
    </g>
   </symbol>
   <symbol id="search" viewBox="0 0 100 100">
    <g id="Governance2.0" stroke="none" stroke-width="1" fill="none" fill-rule="evenodd">
        <g id="nnc0_v1" transform="translate(-90.000000, -123.000000)">
            <g id="Body" transform="translate(68.000000, 59.000000)">
                <g id="tree">
                    <g id="search" transform="translate(1.000000, 49.000000)">
                        <g id="search-black" transform="translate(19.000000, 13.000000)">
                            <path d="M13.9003588,13.4298398 L13.7626886,13.2941505 C13.6124326,13.1459622 13.5310365,13.065643 13.3995537,12.935788 C13.0239046,12.5647896 12.6482627,12.1929682 12.2977118,11.8448207 L12.2773181,11.8245654 C11.4050897,10.9581933 10.8263143,10.3751807 10.729865,10.2624908 C10.581019,10.0885813 10.5618768,9.75860601 10.6803252,9.56820292 C11.1407005,8.78986303 11.3844576,7.89720104 11.3844576,6.96422388 C11.3844576,4.19883162 9.37462829,2 6.76371469,2 C4.12974646,2 2,4.22584266 2,6.96422388 C2,9.70187737 4.12988561,11.927576 6.76371469,11.927576 C7.52332134,11.927576 8.25796352,11.7427213 8.92084999,11.3930247 C9.08367696,11.3071275 9.14604092,11.1054968 9.0601438,10.9426698 C8.97424667,10.7798429 8.77261595,10.7174789 8.60978898,10.803376 C8.04202993,11.1028895 7.41403389,11.2609093 6.76371469,11.2609093 C4.5047975,11.2609093 2.66666667,9.34009008 2.66666667,6.96422388 C2.66666667,4.58761153 4.50467867,2.66666667 6.76371469,2.66666667 C8.99239805,2.66666667 10.7177909,4.55431375 10.7177909,6.96422388 C10.7177909,7.77791889 10.50604,8.55337119 10.1103709,9.22245676 C9.84470165,9.64935459 9.88229962,10.297472 10.2233787,10.6959836 C10.3385355,10.8305311 10.9027107,11.3988366 11.8075041,12.2975551 L11.8279316,12.3178439 C12.1789731,12.6664787 12.5550374,13.0387182 12.9310945,13.4101196 C13.0627089,13.5401046 13.1441824,13.6205002 13.2946089,13.7688566 L13.4325643,13.9048269 C13.5637283,14.0340048 13.7747772,14.0323947 13.9039551,13.9012306 C14.033133,13.7700666 14.0315229,13.5590177 13.9003588,13.4298398 Z" id="Stroke-96" fill="#2C2E2F" fill-rule="nonzero"></path>
                            <rect id="Padding" x="0" y="0" width="16" height="16"></rect>
                        </g>
                    </g>
                </g>
            </g>
        </g>
    </g>
   </symbol>
   <symbol id="chevron-down" viewBox="0 0 100 100">
     <g id="v3" stroke="none" stroke-width="1" fill="none" fill-rule="evenodd">
        <g id="Glossary" transform="translate(-510.000000, -336.000000)" fill="#2C2E2F" fill-rule="nonzero">
            <g id="Icons/chevron-down" transform="translate(505.000000, 328.000000)">
                <path d="M6.35355339,8.14644661 L12,13.7928932 L17.6464466,8.14644661 C17.8417088,7.95118446 18.1582912,7.95118446 18.3535534,8.14644661 C18.5488155,8.34170876 18.5488155,8.65829124 18.3535534,8.85355339 L12.3535534,14.8535534 C12.1582912,15.0488155 11.8417088,15.0488155 11.6464466,14.8535534 L5.64644661,8.85355339 C5.45118446,8.65829124 5.45118446,8.34170876 5.64644661,8.14644661 C5.84170876,7.95118446 6.15829124,7.95118446 6.35355339,8.14644661 Z" id="Path"></path>
            </g>
        </g>
    </g>
   </symbol>
   <symbol id="artboard" viewBox="0 0 100 100">
      <g id="Artboard" stroke="none" stroke-width="1" fill="none" fill-rule="evenodd">
        <g id="notes-dark" transform="translate(0.500000, 0.500000)" stroke="#2C2E2F">
            <g id="Group">
                <polygon id="Rectangle" fill-rule="nonzero" points="14.0232558 -7.10542736e-15 14.0232558 16.2727273 7.99360578e-15 16.2727273 7.99360578e-15 2.81877321 1.6131979 1.42651102 3.2012503 -7.10542736e-15"></polygon>
                <path d="M2.37209282,18 L15.9999998,18" id="Line-3" stroke-linecap="square"></path>
                <path d="M15.9999998,18 L15.9999998,2.76363636" id="Line" stroke-linecap="square"></path>
                <path d="M15.9999998,2.76363636 L14.0232558,2.76363636" id="Line-2" stroke-linecap="square"></path>
                <path d="M2.37209282,18 L2.37209282,16.2727273" id="Line-4" stroke-linecap="square"></path>
            </g>
            <g id="Group-2" transform="translate(0.849418, 0.615281)" fill-rule="nonzero">
                <path d="M1.2203494,3.20290054 L11.1040704,3.20290054" id="Line-21" stroke-linecap="square"></path>
                <path d="M1.2203494,6.54229448 L11.1040704,6.54229448" id="Line-21-Copy" stroke-linecap="square"></path>
                <path d="M1.2203494,9.88168842 L11.1040704,9.88168842" id="Line-21-Copy-2" stroke-linecap="square"></path>
                <path d="M1.2203494,13.2210823 L6.78979673,13.2210823" id="Line-21-Copy-3" stroke-linecap="square"></path>
                <polygon id="Rectangle" transform="translate(0.854361, 0.746905) scale(-1, 1) translate(-0.854361, -0.746905) " points="1.26565425e-14 -6.55031585e-15 1.26565425e-14 1.49380963 1.7087215 1.49380963 0.8101308 0.72192584"></polygon>
            </g>
        </g>
    </g>
   </symbol>
   <symbol id="chevron-right" viewBox="0 0 100 100">
     <g id="Governance2.0" stroke="none" stroke-width="1" fill="none" fill-rule="evenodd">
        <g id="new-event-server-side" transform="translate(-845.000000, -933.000000)" fill="#167BC0" fill-rule="nonzero">
            <g id="Body" transform="translate(76.000000, 70.000000)">
                <g id="content" transform="translate(308.000000, 70.000000)">
                    <g id="cta" transform="translate(19.000000, 782.000000)">
                        <g id="next" transform="translate(322.000000, 0.000000)">
                            <g id="gov/chevron-down-link" transform="translate(123.500000, 17.500000) rotate(-90.000000) translate(-123.500000, -17.500000) translate(117.000000, 14.000000)">
                                <path d="M0.853553391,0.146446609 L6.5,5.79289322 L12.1464466,0.146446609 C12.3417088,-0.0488155365 12.6582912,-0.0488155365 12.8535534,0.146446609 C13.0488155,0.341708755 13.0488155,0.658291245 12.8535534,0.853553391 L6.85355339,6.85355339 C6.65829124,7.04881554 6.34170876,7.04881554 6.14644661,6.85355339 L0.146446609,0.853553391 C-0.0488155365,0.658291245 -0.0488155365,0.341708755 0.146446609,0.146446609 C0.341708755,-0.0488155365 0.658291245,-0.0488155365 0.853553391,0.146446609 Z" id="Path"></path>
                            </g>
                        </g>
                    </g>
                </g>
            </g>
        </g>
    </g>
   </symbol>
   <symbol id="triangle" viewBox="0 0 100 100">
    <g id="Governance2.0" stroke="none" stroke-width="1" fill="none" fill-rule="evenodd">
        <g id="Projects1" transform="translate(-209.000000, -634.000000)" fill="#167BC0">
            <g id="Body" transform="translate(59.000000, 50.000000)">
                <g id="table" transform="translate(20.000000, 524.000000)">
                    <g id="header" transform="translate(43.032114, 55.000000)">
                        <polygon id="Triangle" transform="translate(92.962395, 10.500000) scale(1, -1) translate(-92.962395, -10.500000) " points="92.9623948 5 98.6918091 16 87.2329804 16"></polygon>
                    </g>
                </g>
            </g>
        </g>
    </g>
   </symbol>
   <symbol id="active-project" viewBox="0 0 100 100">
     <g id="Governance2.0" stroke="none" stroke-width="1" fill="none" fill-rule="evenodd">
        <g id="nnc_app_view-copy" transform="translate(-386.000000, -75.000000)">
            <g id="Body" transform="translate(365.000000, 60.000000)">
                <g id="content">
                    <g id="header" transform="translate(0.000000, 9.000000)">
                        <g id="content" transform="translate(21.000000, 6.000000)">
                            <g id="Group-9">
                                <g id="Group-13">
                                    <g id="Group-6-Copy">
                                        <g id="Group">
                                            <g id="Group-31">
                                                <g id="app-header-active" transform="translate(0.000000, 0.000000)">
                                                    <polygon id="Rectangle" fill="#FF9600" points="0 5.26721161 10 6.78269475e-12 20 5.26721161 20 16.065177 10 21.299357 0 16.065177"></polygon>
                                                    <g id="flows-tree-light-copy-3" stroke-width="1" transform="translate(3.000000, 4.000000)" stroke="#FFFFFF">
                                                        <g id="gov/projects" stroke-width="0.5">
                                                            <line x1="7" y1="7" x2="0.396226415" y2="3.69811321" id="Line-15" stroke-linecap="round"></line>
                                                            <line x1="7" y1="7" x2="7" y2="13.4716981" id="Line-13" stroke-linecap="round"></line>
                                                            <line x1="10.5" y1="8.78301887" x2="13.7358491" y2="10.3018868" id="Line-12" stroke-linecap="round"></line>
                                                            <path d="M13.75,10.4105248 L7.03075764,13.7215378 L0.25,10.4099121 L0.25,3.71910283 L6.98540668,0.28057128 L13.75,3.71939759 L13.75,10.4105248 Z" id="Rectangle"></path>
                                                            <path d="M10.3160377,8.6611478 L7.01542786,10.2875756 L3.68396226,8.66053507 L3.68396226,5.4036881 L6.99268364,3.71453354 L10.3160377,5.40398285 L10.3160377,8.6611478 Z" id="Rectangle-Copy-11"></path>
                                                            <line x1="3.63207547" y1="8.6509434" x2="0.396226415" y2="10.3679245" id="Line-14" stroke-linecap="round"></line>
                                                            <line x1="7" y1="0.396226415" x2="7" y2="3.63207547" id="Line-10" stroke-linecap="round"></line>
                                                            <line x1="7" y1="7" x2="13.6037736" y2="3.83018868" id="Line-11" stroke-linecap="round"></line>
                                                        </g>
                                                    </g>
                                                </g>
                                            </g>
                                        </g>
                                    </g>
                                </g>
                            </g>
                        </g>
                    </g>
                </g>
            </g>
        </g>
    </g>
   </symbol>
   <symbol id="flow-folder" viewBox="0 0 100 100">
      <g id="Governance2.0" stroke="none" stroke-width="1" fill="none" fill-rule="evenodd">
        <g id="nnc0_v1" transform="translate(-101.000000, -193.000000)">
            <g id="Body" transform="translate(68.000000, 59.000000)">
                <g id="tree">
                    <g id="new-flow" transform="translate(0.000000, 134.000000)">
                        <g id="flow1">
                            <g id="node2" transform="translate(33.000000, 0.000000)">
                                <g id="flow-open-copy">
                                    <path d="M2,1.99791312 C2,0.894496173 2.89639318,0 3.99941809,0 L6.54603646,0 C7.65028458,0 8.54545455,0.898260623 8.54545455,1.99791312 L8.545,2 L18.0049107,2 C19.1067681,2 20,2.88670635 20,3.99810135 L20,8.00189865 C20,9.10541955 19.1073772,10 18.0049107,10 L3.99508929,10 C2.8932319,10 2,9.11329365 2,8.00189865 L2,1.99791312 Z" id="Rectangle-45" fill="#FFDE5C"></path>
                                    <rect id="Rectangle-44" fill="#F6F7FB" x="0.999872861" y="4" width="20" height="5"></rect>
                                    <path d="M20.1932592,6 C21.3021185,6 22.0825806,6.89354265 21.9393018,7.97442019 L21.2010987,13.545845 C20.7016719,13.3943296 20.1690992,13.3125 19.6162586,13.3125 C16.7610817,13.3125 14.4465034,15.4951118 14.4465034,18.1875 C14.4465034,18.4646576 14.4710308,18.7364132 14.5181502,19.0009419 L3.51477801,19 C2.41420042,19 1.40355993,18.1064574 1.26028116,17.0255798 L0.0604791303,7.97442019 C-0.0840675102,6.88397803 0.690774267,6 1.8065217,6 L20.1932592,6 Z" id="Rectangle-43" fill="#FFEA95"></path>
                                    <g id="Group-20" transform="translate(10.000000, 9.000000)">
                                        <polygon id="Rectangle" fill="#CA4C72" points="0 3.20894738 5.65714286 1.58429115e-12 11.3142857 3.20894738 11.3142857 9.78740012 5.65714286 12.9762236 0 9.78740012"></polygon>
                                        <g id="gov/flows" transform="translate(3.085714, 3.120000)" stroke="#FFFFFF" stroke-width="0.72">
                                            <g id="Group">
                                                <path d="M0.737560976,2.47305882 C0.737560976,3.13615888 1.20133885,3.6133724 2.12889461,3.90469937 C3.05645037,4.19602635 3.54096517,4.69457754 3.58243902,5.40035294" id="Line-14" stroke-linecap="square"></path>
                                                <ellipse id="Oval" cx="3.58243902" cy="0.706588235" rx="1" ry="1"></ellipse>
                                                <ellipse id="Oval-Copy-3" cx="0.737560976" cy="1.716" rx="1" ry="1"></ellipse>
                                                <ellipse id="Oval-Copy-2" cx="3.58243902" cy="6.15741176" rx="1" ry="1"></ellipse>
                                                <line x1="3.58243902" y1="5.45082353" x2="3.58243902" y2="1.41317647" id="Line-13" stroke-linecap="square"></line>
                                            </g>
                                        </g>
                                    </g>
                                </g>
                            </g>
                        </g>
                    </g>
                </g>
            </g>
        </g>
    </g>
   </symbol>
   <symbol id="loader-small" viewBox="0 0 100 100">
    <g id="Symbols" stroke="none" stroke-width="1" fill="none" fill-rule="evenodd">
        <g id="i-loader-small">
            <g id="Group" transform="translate(8.000000, 8.000000) rotate(-30.000000) translate(-8.000000, -8.000000) translate(1.000000, 1.000000)" stroke="#979797" stroke-width="2" stroke-linecap="round">
                <path d="M7,12 C8.38071187,12 9.63071187,11.4403559 10.5355339,10.5355339 C11.4403559,9.63071187 12,8.38071187 12,7 C12,4.23857625 9.76142375,2 7,2 C5.61928813,2 4.36928813,2.55964406 3.46446609,3.46446609 C2.55964406,4.36928813 2,5.61928813 2,7" id="Oval-5"></path>
                <path d="M7,12 C8.38071187,12 9.63071187,11.4403559 10.5355339,10.5355339 C11.4403559,9.63071187 12,8.38071187 12,7 C12,4.23857625 9.76142375,2 7,2 C5.61928813,2 4.36928813,2.55964406 3.46446609,3.46446609 C2.55964406,4.36928813 2,5.61928813 2,7" id="Oval-5" transform="translate(7.000000, 7.000000) rotate(-30.000000) translate(-7.000000, -7.000000) "></path>
            </g>
            <rect id="Rectangle-Copy-4" fill="#555555" transform="translate(8.000000, 13.000000) rotate(-90.000000) translate(-8.000000, -13.000000) " x="7" y="12" width="2" height="2" rx="1"></rect>
            <rect id="Rectangle-Copy-5" fill="#555555" transform="translate(8.000000, 8.000000) rotate(-90.000000) translate(-8.000000, -8.000000) " x="7" y="7" width="2" height="2" rx="1"></rect>
        </g>
    </g>
   </symbol>
   <symbol id="calendar" viewBox="0 0 100 100">
      <g id="Governance2.0" stroke="none" stroke-width="1" fill="none" fill-rule="evenodd">
        <g id="Projects1-create-step1-Copy-2" transform="translate(-1063.000000, -394.000000)" fill="#2C2E2F" fill-rule="nonzero">
            <g id="cards" transform="translate(1051.000000, 277.000000)">
                <g id="card3" transform="translate(0.000000, 109.000000)">
                    <g id="gov/calendar" transform="translate(10.000000, 5.000000)">
                        <path d="M14.1666667,5 L5.83441667,5 L5.83441667,5.41666667 C5.83441667,5.64678531 5.64786865,5.83333333 5.41775,5.83333333 C5.18763135,5.83333333 5.00108333,5.64678531 5.00108333,5.41666667 L5.00108333,5 L3.75066667,5 C3.52245198,5 3.334,5.18845198 3.334,5.41666667 L3.334,7.5 L17.084,7.5 C17.3141186,7.5 17.5006667,7.68654802 17.5006667,7.91666667 L17.5006667,15.4166667 C17.5006667,16.1051186 16.9391186,16.6666667 16.2506667,16.6666667 L3.75066667,16.6666667 C3.06221469,16.6666667 2.50066667,16.1051186 2.50066667,15.4166667 L2.50066667,5.41666667 C2.50066667,4.72821469 3.06221469,4.16666667 3.75066667,4.16666667 L5.00108333,4.16666667 L5.00108333,3.75 C5.00108333,3.51988135 5.18763135,3.33333333 5.41775,3.33333333 C5.64786865,3.33333333 5.83441667,3.51988135 5.83441667,3.75 L5.83441667,4.16666667 L14.1666667,4.16666667 L14.1666667,3.74991667 C14.1666667,3.51979802 14.3532147,3.33325 14.5833333,3.33325 C14.813452,3.33325 15,3.51979802 15,3.74991667 L15,4.16666667 L16.2506667,4.16666667 C16.9391186,4.16666667 17.5006667,4.72821469 17.5006667,5.41666667 C17.5006667,5.64678531 17.3141186,5.83333333 17.084,5.83333333 C16.8538814,5.83333333 16.6673333,5.64678531 16.6673333,5.41666667 C16.6673333,5.18845198 16.4788814,5 16.2506667,5 L15,5 L15,5.41658333 C15,5.64670198 14.813452,5.83325 14.5833333,5.83325 C14.3532147,5.83325 14.1666667,5.64670198 14.1666667,5.41658333 L14.1666667,5 Z M3.334,8.33333333 L3.334,15.4166667 C3.334,15.6448814 3.52245198,15.8333333 3.75066667,15.8333333 L16.2506667,15.8333333 C16.4788814,15.8333333 16.6673333,15.6448814 16.6673333,15.4166667 L16.6673333,8.33333333 L3.334,8.33333333 Z M7.08333333,14.1665833 C7.025,14.1665833 6.975,14.15825 6.925,14.13325 C6.875,14.11575 6.825,14.0824167 6.79166667,14.0415833 C6.70833333,13.9665833 6.66666667,13.85825 6.66666667,13.7499167 C6.66666667,13.6415833 6.70833333,13.53325 6.79166667,13.4574167 C6.825,13.4165833 6.875,13.38325 6.925,13.3665833 C7.075,13.2999167 7.26666667,13.3415833 7.375,13.4574167 C7.45833333,13.53325 7.5,13.6415833 7.5,13.7499167 C7.5,13.85825 7.45833333,13.9665833 7.375,14.0415833 C7.3,14.1249167 7.19166667,14.1665833 7.08333333,14.1665833 Z M7.08333333,12.4999167 C7.025,12.4999167 6.975,12.4915833 6.925,12.4665833 C6.875,12.4490833 6.825,12.41575 6.79166667,12.3749167 C6.75,12.3415833 6.71666667,12.2915833 6.7,12.24075 C6.675,12.1915833 6.66666667,12.14075 6.66666667,12.08325 C6.66666667,11.9749167 6.70833333,11.8665833 6.79166667,11.79075 C6.90833333,11.6749167 7.08333333,11.63325 7.24166667,11.6999167 C7.29166667,11.7165833 7.34166667,11.7499167 7.375,11.79075 C7.45833333,11.8665833 7.5,11.9749167 7.5,12.08325 C7.5,12.14075 7.49166667,12.1915833 7.46666667,12.24075 C7.45,12.2915833 7.41666667,12.3415833 7.375,12.3749167 C7.34166667,12.41575 7.29166667,12.4490833 7.24166667,12.4665833 C7.19166667,12.4915833 7.14166667,12.4999167 7.08333333,12.4999167 Z M9.58333333,14.1665833 C9.525,14.1665833 9.475,14.15825 9.425,14.13325 C9.375,14.11575 9.325,14.0824167 9.29166667,14.0415833 C9.20833333,13.9665833 9.16666667,13.85825 9.16666667,13.7499167 C9.16666667,13.6415833 9.20833333,13.53325 9.29166667,13.4574167 C9.325,13.4165833 9.375,13.38325 9.425,13.3665833 C9.575,13.2999167 9.76666667,13.3415833 9.875,13.4574167 C9.95833333,13.53325 10,13.6415833 10,13.7499167 C10,13.85825 9.95833333,13.9665833 9.875,14.0415833 C9.8,14.1249167 9.69166667,14.1665833 9.58333333,14.1665833 Z M9.58333333,12.4999167 C9.475,12.4999167 9.36666667,12.45825 9.29166667,12.3749167 C9.25,12.3415833 9.21666667,12.2915833 9.2,12.24075 C9.175,12.1915833 9.16666667,12.14075 9.16666667,12.08325 C9.16666667,11.9749167 9.20833333,11.8665833 9.29166667,11.79075 C9.325,11.7499167 9.375,11.7165833 9.425,11.6999167 C9.58333333,11.63325 9.75833333,11.6749167 9.875,11.79075 C9.95833333,11.8665833 10,11.9749167 10,12.08325 C10,12.14075 9.99166667,12.1915833 9.96666667,12.24075 C9.95,12.2915833 9.91666667,12.3415833 9.875,12.3749167 C9.84166667,12.41575 9.79166667,12.4490833 9.74166667,12.4665833 C9.69166667,12.4915833 9.64166667,12.4999167 9.58333333,12.4999167 Z M9.58333333,10.83325 C9.525,10.83325 9.475,10.8249167 9.425,10.7999167 C9.375,10.7824167 9.325,10.7490833 9.29166667,10.70825 C9.20833333,10.63325 9.16666667,10.5249167 9.16666667,10.4165833 C9.16666667,10.36575 9.175,10.30825 9.2,10.25825 C9.21666667,10.20825 9.25,10.1574167 9.29166667,10.1240833 C9.4,10.00825 9.59166667,9.96658333 9.74166667,10.03325 C9.79166667,10.0499167 9.84166667,10.08325 9.875,10.1240833 C9.91666667,10.1574167 9.95,10.20825 9.96666667,10.25825 C9.99166667,10.30825 10,10.36575 10,10.4165833 C10,10.5249167 9.95833333,10.63325 9.875,10.70825 C9.8,10.7915833 9.69166667,10.83325 9.58333333,10.83325 Z M12.0833333,14.1665833 C12.025,14.1665833 11.975,14.15825 11.925,14.13325 C11.875,14.11575 11.825,14.0824167 11.7916667,14.0415833 C11.75,14.00825 11.7166667,13.95825 11.7,13.9074167 C11.675,13.85825 11.6666667,13.8074167 11.6666667,13.7499167 C11.6666667,13.6415833 11.7083333,13.53325 11.7916667,13.4574167 C11.825,13.4165833 11.875,13.38325 11.925,13.3665833 C12.025,13.3249167 12.1416667,13.3249167 12.2416667,13.3665833 C12.2916667,13.38325 12.3416667,13.4165833 12.375,13.4574167 C12.4583333,13.53325 12.5,13.6415833 12.5,13.7499167 C12.5,13.85825 12.4583333,13.9665833 12.375,14.0415833 C12.3416667,14.0824167 12.2916667,14.11575 12.2416667,14.13325 C12.1916667,14.15825 12.1416667,14.1665833 12.0833333,14.1665833 Z M12.0833333,12.4999167 C12.025,12.4999167 11.975,12.4915833 11.925,12.4665833 C11.875,12.4490833 11.825,12.41575 11.7916667,12.3749167 C11.75,12.3415833 11.7166667,12.2915833 11.7,12.24075 C11.675,12.1915833 11.6666667,12.14075 11.6666667,12.08325 C11.6666667,11.9749167 11.7083333,11.8665833 11.7916667,11.79075 C11.9416667,11.63325 12.2166667,11.63325 12.375,11.79075 C12.4583333,11.8665833 12.5,11.9749167 12.5,12.08325 C12.5,12.14075 12.4916667,12.1915833 12.4666667,12.24075 C12.45,12.2915833 12.4166667,12.3415833 12.375,12.3749167 C12.3,12.45825 12.1916667,12.4999167 12.0833333,12.4999167 Z M12.0833333,10.83325 C12.025,10.83325 11.975,10.8249167 11.925,10.7999167 C11.875,10.7824167 11.825,10.7490833 11.7916667,10.70825 C11.7083333,10.63325 11.6666667,10.5249167 11.6666667,10.4165833 C11.6666667,10.30825 11.7083333,10.1999167 11.7916667,10.1240833 C11.9,10.00825 12.0833333,9.96658333 12.2416667,10.03325 C12.2916667,10.0499167 12.3416667,10.08325 12.375,10.1240833 C12.4166667,10.1574167 12.45,10.20825 12.4666667,10.25825 C12.4916667,10.30825 12.5,10.36575 12.5,10.4165833 C12.5,10.5249167 12.4583333,10.63325 12.375,10.70825 C12.3,10.7915833 12.1916667,10.83325 12.0833333,10.83325 Z M14.5833333,12.4999167 C14.525,12.4999167 14.475,12.4915833 14.425,12.4665833 C14.375,12.4490833 14.325,12.41575 14.2916667,12.3749167 C14.25,12.3415833 14.2166667,12.2915833 14.2,12.24075 C14.175,12.1915833 14.1666667,12.14075 14.1666667,12.08325 C14.1666667,11.9749167 14.2083333,11.8665833 14.2916667,11.79075 C14.325,11.7499167 14.375,11.7165833 14.425,11.6999167 C14.5833333,11.63325 14.7583333,11.6749167 14.875,11.79075 C14.9583333,11.8665833 15,11.9749167 15,12.08325 C15,12.14075 14.9916667,12.1915833 14.9666667,12.24075 C14.95,12.2915833 14.9166667,12.3415833 14.875,12.3749167 C14.8416667,12.41575 14.7916667,12.4490833 14.7416667,12.4665833 C14.6916667,12.4915833 14.6416667,12.4999167 14.5833333,12.4999167 Z M14.5833333,10.83325 C14.525,10.83325 14.475,10.8249167 14.425,10.7999167 C14.375,10.7824167 14.325,10.7490833 14.2916667,10.70825 C14.2083333,10.63325 14.1666667,10.5249167 14.1666667,10.4165833 C14.1666667,10.30825 14.2083333,10.1999167 14.2916667,10.1240833 C14.4416667,9.96658333 14.725,9.96658333 14.875,10.1240833 C14.9583333,10.1999167 15,10.30825 15,10.4165833 C15,10.5249167 14.9583333,10.63325 14.875,10.70825 C14.8416667,10.7490833 14.7916667,10.7824167 14.7416667,10.7999167 C14.6916667,10.8249167 14.6416667,10.83325 14.5833333,10.83325 Z" id="Shape"></path>
                    </g>
                </g>
            </g>
        </g>
    </g>
   </symbol>
   <symbol id="goals" viewBox="0 0 100 100">
      <g id="Governance2.0" stroke="none" stroke-width="1" fill="none" fill-rule="evenodd">
        <g id="Projects1-create-step1-Copy-2" transform="translate(-1063.000000, -433.000000)" fill="#2C2E2F" fill-rule="nonzero">
            <g id="cards" transform="translate(1051.000000, 277.000000)">
                <g id="card4" transform="translate(0.000000, 149.000000)">
                    <g id="Icons/goals" transform="translate(10.000000, 5.000000)">
                        <path d="M13.3385909,6.08014517 L13.3385909,4.58416854 C13.3385909,4.47357946 13.3825548,4.36752676 13.4607975,4.28937301 L15.1293632,2.62270634 C15.391917,2.3604513 15.8404899,2.54640589 15.8404899,2.91750187 L15.8404899,4.58416854 C15.8404899,4.81428718 15.6539418,5.0008352 15.4238232,5.0008352 C15.1937046,5.0008352 15.0071565,4.81428718 15.0071565,4.58416854 L15.0071565,3.92261478 L14.1719242,4.75689651 L14.1719242,5.84406401 L15.3918141,5.84406401 L16.8202181,4.50456869 C16.9880767,4.34715816 17.2517594,4.355628 17.40917,4.52348662 C17.5665805,4.69134523 17.5581107,4.95502798 17.3902521,5.11243851 L15.8416338,6.56466558 C15.7644018,6.63709041 15.6624948,6.67739734 15.5566168,6.67739734 L13.91985,6.67739734 L10.3017844,10.295463 C10.1390659,10.4581815 9.87524716,10.4581815 9.71252871,10.295463 C9.54981025,10.1327446 9.54981025,9.86892583 9.71252871,9.70620738 L13.3385909,6.08014517 Z M9.59058098,7.92856416 C9.81619731,7.8832667 10.0358163,8.02944403 10.0811138,8.25506037 C10.1264113,8.4806767 9.98023392,8.70029573 9.75461759,8.74559319 C9.15145835,8.86669072 8.71013033,9.3995261 8.71013033,10.0228275 C8.71013033,10.742122 9.29326304,11.3249673 10.0128836,11.3249673 C10.6360464,11.3249673 11.1686075,10.8843554 11.2899702,10.2818027 C11.3354068,10.0562143 11.555116,9.91017254 11.7807044,9.95560922 C12.0062927,10.0010459 12.1523345,10.2207551 12.1068978,10.4463434 C11.9075395,11.4361365 11.0346704,12.1583007 10.0128836,12.1583007 C8.83311769,12.1583007 7.876797,11.2024513 7.876797,10.0228275 C7.876797,9.00062503 8.60002385,8.12744036 9.59058098,7.92856416 Z M11.5854395,5.45638462 C11.8028316,5.53185165 11.9178846,5.76926087 11.8424176,5.98665295 C11.7669505,6.20404504 11.5295413,6.31909803 11.3121492,6.24363101 C10.8979091,6.09982876 10.4611274,6.02554742 10.0135106,6.02554742 C7.81062617,6.02554742 6.02443571,7.81173788 6.02443571,10.0146223 C6.02443571,12.218036 7.81054003,14.0043126 10.0135106,14.0043126 C12.2170104,14.0043126 14.0032009,12.2181221 14.0032009,10.0146223 C14.0032009,9.56455287 13.9278733,9.12493067 13.7821833,8.70794707 C13.7062815,8.4907064 13.8208592,8.25306747 14.0380999,8.17716567 C14.2553406,8.10126386 14.4929795,8.21584164 14.5688813,8.43308231 C14.7452908,8.93798877 14.8365342,9.47049832 14.8365342,10.0146223 C14.8365342,12.6783594 12.6772477,14.8376459 10.0135106,14.8376459 C7.35028474,14.8376459 5.19110237,12.6782553 5.19110237,10.0146223 C5.19110237,7.35150059 7.35038888,5.19221408 10.0135106,5.19221408 C10.5545521,5.19221408 11.08368,5.28220028 11.5854395,5.45638462 Z M12.6430661,2.99450344 C12.858423,3.07559575 12.9672661,3.31591538 12.8861738,3.53127236 C12.8050814,3.74662934 12.5647618,3.85547236 12.3494048,3.77438005 C11.606342,3.49458102 10.8158476,3.34969501 10.0028967,3.34969501 C6.31948522,3.34969501 3.33333333,6.33584689 3.33333333,10.0192584 C3.33333333,13.7037641 6.31929886,16.6901024 10.0028967,16.6901024 C13.6875888,16.6901024 16.6737407,13.7039505 16.6737407,10.0192584 C16.6737407,9.22509361 16.5337557,8.44917254 16.2641263,7.71890074 C16.1844217,7.50302634 16.294809,7.26341215 16.5106834,7.18370748 C16.7265578,7.1040028 16.966172,7.21439017 17.0458767,7.43026457 C17.3494651,8.25251207 17.507074,9.12612054 17.507074,10.0192584 C17.507074,14.1641878 14.1478261,17.5234357 10.0028967,17.5234357 C5.85903829,17.5234357 2.5,14.1639781 2.5,10.0192584 C2.5,5.8756096 5.85924793,2.51636167 10.0028967,2.51636167 C10.9164979,2.51636167 11.8064486,2.67947656 12.6430661,2.99450344 Z" id="Combined-Shape"></path>
                    </g>
                </g>
            </g>
        </g>
    </g>
   </symbol>
   <symbol id="attachments" viewBox="0 0 100 100">
      <g id="Governance2.0" stroke="none" stroke-width="1" fill="none" fill-rule="evenodd">
        <g id="Projects1-create-step1-Copy-2" transform="translate(-1063.000000, -315.000000)" fill="#2C2E2F" fill-rule="nonzero">
            <g id="cards" transform="translate(1051.000000, 277.000000)">
                <g id="card1" transform="translate(0.000000, 29.000000)">
                    <g id="gov/attach-grey" transform="translate(10.000000, 6.000000)">
                        <path d="M7.58242721,14.153421 C7.59428752,14.1375603 7.60742474,14.1223523 7.62183887,14.1079377 L13.5587242,8.17083964 C13.8677876,7.86177619 13.8677876,7.36049146 13.5587242,7.05142801 C13.2496607,6.74236456 12.748376,6.74236456 12.4393125,7.05142801 L8.09466473,11.3960758 C7.93194627,11.5587943 7.66812753,11.5587943 7.50540908,11.3960758 C7.34269062,11.2333574 7.34269062,10.9695386 7.50540908,10.8068202 L11.8500569,6.46217236 C12.4845573,5.827672 13.5134795,5.827672 14.1479798,6.46217236 C14.7824802,7.09667272 14.7824802,8.12559493 14.1479851,8.76009001 L8.34641652,14.5618665 C8.33455099,14.5777361 8.32140721,14.5929524 8.30698517,14.6073744 L6.6535062,16.2608534 C5.70334645,17.2110131 4.16277956,17.2110131 3.21261981,16.2608534 C2.26246006,15.3106936 2.26246006,13.7701267 3.21260263,12.8199842 L3.59240072,12.4401418 C3.60219971,12.4278247 3.61279667,12.415934 3.6241916,12.404539 L12.0024177,4.02631291 C13.2601266,2.76900681 15.2990858,2.76900681 16.5568418,4.02636008 C17.8144484,5.28396668 17.8143238,7.32334925 16.5568503,8.58082271 L10.5389341,14.5990896 C10.3762204,14.7618128 10.1124016,14.7618205 9.94967842,14.5991068 C9.78695523,14.4363931 9.78694754,14.1725743 9.94966125,14.0098511 L15.9675861,7.99157564 C16.8996474,7.0595144 16.8997397,5.5477693 15.9676333,4.61566291 C15.0353398,3.68366792 13.5238725,3.68366792 12.5916262,4.61561573 L6.36577815,10.8414638 C6.35626331,10.8533303 6.34600431,10.864797 6.33500116,10.8758015 L3.80187546,13.4092226 C3.17715262,14.0339455 3.17715262,15.0468749 3.80187546,15.6715977 C4.4265983,16.2963206 5.43952771,16.2963206 6.06425055,15.6715977 L7.58242721,14.153421 L7.58242721,14.153421 Z" id="Paperclip"></path>
                    </g>
                </g>
            </g>
        </g>
    </g>
   </symbol>
   <symbol id="faq" viewBox="0 0 100 100">
      <g id="Governance2.0" stroke="none" stroke-width="1" fill="none" fill-rule="evenodd">
        <g id="Projects1" transform="translate(-99.000000, -970.000000)" fill="#0072BC">
            <g id="Body" transform="translate(59.000000, 50.000000)">
                <g id="help" transform="translate(40.000000, 920.000000)">
                    <g id="gov/avatar-help">
                        <g id="boy-raising-hand-for-question">
                            <path d="M24.2566234,9.43493506 C24.0602597,9.36064935 23.8651948,9.33805195 23.6736364,9.36402597 C23.4819481,9.39298701 23.3097403,9.46181818 23.1544156,9.57220779 C23.001039,9.68311688 22.8693506,9.82402597 22.7618182,9.99558442 C22.6528571,10.1663636 22.5849351,10.3553247 22.5587013,10.5564935 C22.5385714,10.8738961 22.62,11.1637662 22.8028571,11.4272727 C22.9844156,11.688961 23.2015584,11.8675325 23.4538961,11.9619481 C23.7927273,12.0903896 24.1168831,12.0718182 24.428961,11.9088312 C24.7402597,11.7461039 24.9509091,11.5032468 25.0603896,11.1809091 C25.1128571,11.0397403 25.1336364,10.9155844 25.1242857,10.8116883 L25.1114286,10.8457143 C25.1537662,10.5363636 25.0974026,10.2532468 24.9454545,9.99428571 C24.7925974,9.73649351 24.5633766,9.55064935 24.2566234,9.43493506 Z" id="Path" fill-rule="nonzero"></path>
                            <path d="M27.3124675,7.14818182 C27.4631169,7.11155844 27.6232468,7.06818182 27.7925974,7.0187013 C28.937013,6.69857143 29.7528571,6.1861039 30.27,5.49753247 C30.3768831,5.38181818 30.4885714,5.22688312 30.6088312,4.9687013 C31.2874026,3.51779221 30.5853247,2.29493506 30.5853247,2.29493506 C30.5853247,2.29493506 30.2106494,1.63922078 29.9228571,1.34597403 C29.5018182,0.918961039 28.9967532,0.593766234 28.4063636,0.371558442 C28.3075325,0.333506494 28.215974,0.301948052 28.1327273,0.277012987 C28.0480519,0.250779221 27.9679221,0.223246753 27.8912987,0.194935065 C27.5793506,0.128311688 27.2922078,0.0758441558 27.0319481,0.0385714286 C26.7696104,0.00155844156 26.5167532,-0.0074025974 26.2754545,0.00558441558 C26.0312987,0.0207792208 25.7898701,0.0675324675 25.5476623,0.145454545 C25.3057143,0.221168831 25.054026,0.343116883 24.7925974,0.506883117 C24.6950649,0.569480519 24.6049351,0.666623377 24.522987,0.798051948 C24.442987,0.92961039 24.3716883,1.07844156 24.3092208,1.24298701 C24.2224675,1.47298701 24.1531169,1.69753247 24.1012987,1.91441558 C24.0507792,2.13337662 24.0245455,2.27792208 24.0219481,2.3525974 C23.9836364,2.55155844 24.0079221,2.73948052 24.0912987,2.91376623 C24.1746753,3.08935065 24.3002597,3.22077922 24.4672727,3.30753247 L24.451039,3.30285714 C24.5923377,3.39428571 24.7085714,3.4412987 24.8007792,3.44480519 C24.8941558,3.44883117 24.9709091,3.4238961 25.034026,3.37311688 C25.0972727,3.32194805 25.1498701,3.24844156 25.1922078,3.15181818 C25.2345455,3.05493506 25.2735065,2.94402597 25.3079221,2.82 C25.33,2.72857143 25.3576623,2.63909091 25.3912987,2.55103896 C25.4275325,2.45246753 25.4806494,2.37818182 25.55,2.32909091 C25.811039,2.06623377 26.1236364,1.9374026 26.4828571,1.94207792 C26.8446753,1.94688312 27.1876623,2.02883117 27.5137662,2.18987013 C27.9354545,2.39805195 28.2367532,2.69896104 28.4209091,3.09272727 C28.6031169,3.48753247 28.6220779,3.87584416 28.4775325,4.25779221 C28.4068831,4.44298701 28.2953247,4.59805195 28.1432468,4.72337662 C27.99,4.84675325 27.8097403,4.95272727 27.5998701,5.04285714 C27.3920779,5.13402597 27.1661039,5.21025974 26.9233766,5.27415584 C26.6798701,5.33974026 26.4364935,5.40025974 26.1890909,5.45805195 C25.8716883,5.53805195 25.5676623,5.62012987 25.2805195,5.70623377 C24.9919481,5.79051948 24.7364935,5.91 24.5172727,6.06402597 C24.3706494,6.12051948 24.2516883,6.19714286 24.1588312,6.29337662 C24.065974,6.39051948 23.9906494,6.49584416 23.9348052,6.61142857 C23.8783117,6.73012987 23.8305195,6.84909091 23.7902597,6.97116883 C23.7505195,7.09350649 23.7155844,7.21051948 23.6848052,7.32415584 C23.6746753,7.38337662 23.6653247,7.42844156 23.6531169,7.46142857 C23.6437662,7.48402597 23.6342857,7.51090909 23.6215584,7.54350649 C23.5394805,7.76246753 23.51,7.93857143 23.5333766,8.07272727 C23.558961,8.20792208 23.6087013,8.31519481 23.6867532,8.39311688 C23.7620779,8.47142857 23.8563636,8.5312987 23.9653247,8.5725974 C24.0857143,8.61805195 24.2006494,8.66181818 24.3096104,8.70337662 L24.4736364,8.76558442 C24.7144156,8.85636364 24.9074026,8.89831169 25.0546753,8.89233766 C25.2012987,8.88454545 25.317013,8.84116883 25.4037662,8.76116883 C25.4912987,8.68077922 25.5598701,8.56987013 25.6142857,8.42662338 C25.6714286,8.27428571 25.7246753,8.10077922 25.7731169,7.9074026 L25.7837662,7.92922078 L25.8457143,7.76480519 C25.9324675,7.63675325 26.0468831,7.54025974 26.1874026,7.48233766 C26.3272727,7.42181818 26.58,7.34207792 26.9424675,7.24194805 L26.9202597,7.25246753 C27.0293506,7.21909091 27.1618182,7.18376623 27.3124675,7.14818182 Z" id="Path" fill-rule="nonzero"></path>
                            <path d="M12.1671429,4.45142857 C9.18532468,4.45142857 6.64233766,6.00155844 5.61012987,8.18844156 C5.35051948,8.06935065 5.06337662,7.99844156 4.75844156,7.99844156 C3.62831169,7.99844156 3.05675325,9.54857143 2.71181818,10.8533766 C2.39506494,12.0524675 2.2374026,13.568961 3.46363636,13.9316883 C3.46363636,13.9316883 5.68857143,13.4225974 7.00584416,12.2501299 C7.45506494,11.8487013 8.03077922,11.7651948 8.52428571,12.1109091 C9.8961039,13.0749351 13.0871429,14.6532468 19.0133766,14.3418182 C19.0133766,14.3418182 19.3422078,12.3612987 19.2192208,10.3519481 C19.0138961,7.02 16.0618182,4.45142857 12.1671429,4.45142857 Z" id="Path" fill-rule="nonzero"></path>
                            <path d="M18.2696104,27.5877922 C21.3771429,26.6153247 26.0354545,23.4075325 25.8928571,16.5062338 C25.8645455,15.1388312 24.7590909,14.0422078 23.3642857,14.0802597 C21.9957143,14.1092208 20.908961,15.2406494 20.9377922,16.6088312 C21.044026,21.7822078 16.8983117,22.8549351 16.4080519,22.9624675 C16.2136364,23.0028571 16.0341558,23.0707792 15.8619481,23.1506494 C14.8932468,22.1157143 14.0798701,21.7923377 14.0798701,21.7923377 C16.7872727,20.7123377 18.7420779,18.1548052 18.9546753,15.1145455 C18.4590909,15.1388312 17.9654545,15.1538961 17.4879221,15.1538961 C12.3232468,15.1538961 9.43935065,13.6690909 8.17909091,12.7844156 C7.91246753,12.5984416 7.61181818,12.6405195 7.33675325,12.8842857 C5.9312987,14.1354545 3.65051948,14.6690909 3.55376623,14.6919481 L3.4387013,14.7175325 C3.5012987,17.9675325 5.5561039,20.7237662 8.43194805,21.8246753 C8.43194805,21.8246753 8.25974026,21.8375325 7.98142857,21.9175325 C7.56350649,21.8953247 7.13441558,21.9672727 6.73428571,22.1690909 C6.53186203,22.2713954 3.48061653,23.849914 0.817806496,27.295645 C-0.792077886,29.3788685 18.827013,29.4532468 18.2696104,27.5877922 Z" id="Path" fill-rule="nonzero"></path>
                        </g>
                    </g>
                </g>
            </g>
        </g>
    </g>
   </symbol>
</svg>
